<?xml version="1.0" encoding="UTF-8"?>
<!DOCTYPE svg PUBLIC "-//W3C//DTD SVG 1.1//EN" "http://www.w3.org/Graphics/SVG/1.1/DTD/svg11.dtd">
<!-- Creator: CorelDRAW 2020 (64-Bit) -->
<svg xmlns="http://www.w3.org/2000/svg" xml:space="preserve" width="157.855mm" height="41.7559mm" version="1.1" style="shape-rendering:geometricPrecision; text-rendering:geometricPrecision; image-rendering:optimizeQuality; fill-rule:evenodd; clip-rule:evenodd"
viewBox="0 0 41533.21 10986.38"
 xmlns:xlink="http://www.w3.org/1999/xlink"
 xmlns:xodm="http://www.corel.com/coreldraw/odm/2003">
 <defs>
  <style type="text/css">
   <![CDATA[
    .fil0 {fill:#A9D2FF}
    .fil1 {fill:white;fill-rule:nonzero}
   ]]>
  </style>
 </defs>
 <g id="Capa_x0020_1">
  <metadata id="CorelCorpID_0Corel-Layer"/>
  <path class="fil0" d="M10419.06 5693.8l-1682.09 4829.43 -6603.37 0 -1676.51 -4829.43 -130.45 0c-179.65,0 -326.65,-147 -326.65,-326.65l0 -124.53c0,-179.65 147,-326.65 326.65,-326.65l3173.42 0 721.1 -1928.59c-70.64,-109.4 -89.04,-245.85 -37.15,-373.48l758.73 -1866.55c76.59,-188.39 282.84,-300.1 492.54,-282.29 209.7,-17.81 415.95,93.9 492.54,282.29l758.76 1866.55c51.89,127.63 33.47,264.08 -37.15,373.48l721.08 1928.59 3173.47 0c179.62,0 326.62,147 326.62,326.65l0 124.53c0,179.65 -147,326.65 -326.62,326.65l-124.92 0zm-9135.56 -27.52l1645.78 0 168.86 1003.74 -1489.31 0 -325.33 -1003.74zm1908.75 1563.19l163.34 970.82 -1250.82 0 -314.63 -970.82 1402.11 0zm257.45 1530.27l179.94 1069.54 -996.9 0 -346.65 -1069.54 1163.6 0zm-43.26 -3093.46l1752.07 0 0 1003.74 -1583.21 0 -168.86 -1003.74zm1752.07 1563.19l0 970.82 -1325.76 0 -163.34 -970.82 1489.09 0zm0 1530.27l0 1069.54 -1051.7 0 -179.94 -1069.54 1231.64 0zm477.18 -3093.46l1695.82 0 -168.86 1003.74 -1526.96 0 0 -1003.74zm1432.82 1563.19l-163.31 970.82 -1269.5 0 0 -970.82 1432.82 0zm-257.45 1530.27l-179.94 1069.54 -995.42 0 0 -1069.54 1175.36 0zm997.63 -3093.46l1702.03 0 -313.42 1003.74 -1557.48 0 168.86 -1003.74zm1213.93 1563.19l-303.15 970.82 -1337.1 0 163.31 -970.82 1476.94 0zm-477.83 1530.27l-333.96 1069.54 -1102.53 0 179.94 -1069.54 1256.56 0zm-4456.84 -3843.77l2694.69 0 -707.58 -1741.34c-126.74,-42.49 -233.33,-133.26 -283.74,-257.24l-356.04 -875.89 -356.04 875.89c-50.39,123.98 -156.97,214.75 -283.74,257.24l-707.55 1741.34z"/>
 </g>
 <g id="Capa_x0020_1_0">
  <metadata id="CorelCorpID_1Corel-Layer"/>
  <g id="_909700368">
   <path class="fil1" d="M15996.48 1243.56c0,48.07 -1.68,88.56 -5.89,123.16 -4.24,33.76 -10.13,60.75 -18.58,80.99 -8.42,21.1 -18.55,36.28 -31.2,45.57 -11.81,10.13 -26.15,15.18 -40.49,15.18l-799.8 0 0 2579.05c0,16.02 -5.05,31.23 -16.02,44.73 -10.97,12.66 -28.68,23.6 -53.15,32.05 -24.47,7.6 -58.2,14.34 -100.4,19.42 -42.18,5.05 -94.48,7.58 -156.92,7.58 -62.44,0 -114.74,-2.53 -156.92,-7.58 -42.18,-5.08 -75.93,-11.81 -100.38,-19.42 -24.47,-8.45 -42.2,-19.39 -53.17,-32.05 -10.95,-13.5 -16.02,-28.71 -16.02,-44.73l0 -2579.05 -799.77 0c-16.05,0 -30.39,-5.05 -42.2,-15.18 -10.95,-9.29 -21.08,-24.47 -29.52,-45.57 -7.58,-20.23 -14.34,-47.23 -18.55,-80.99 -4.24,-34.6 -5.92,-75.09 -5.92,-123.16 0,-48.94 1.68,-91.11 5.92,-125.71 4.21,-34.6 10.97,-62.44 18.55,-82.67 8.45,-21.1 18.58,-35.44 29.52,-44.73 11.81,-9.29 26.15,-13.5 42.2,-13.5l2252.56 0c14.34,0 27.84,4.21 40.49,13.5 12.66,9.29 22.79,23.63 31.2,44.73 8.45,20.23 14.34,48.07 18.58,82.67 4.21,34.6 5.89,76.78 5.89,125.71zm2987.4 1740.44c0,195.73 -28.68,371.22 -86.88,525.61 -57.38,155.23 -141.74,286 -253.95,393.14 -112.22,107.14 -250.56,188.99 -415.08,244.67 -165.36,56.52 -354.33,84.35 -568.63,84.35 -200.78,0 -381.32,-25.31 -540.77,-75.07 -160.29,-50.62 -295.29,-126.56 -405.79,-228.64 -110.53,-102.09 -194.89,-229.48 -253.11,-382.17 -58.2,-152.71 -87.75,-330.73 -87.75,-534.9l0 -1945.46c0,-16.02 5.08,-31.2 15.21,-44.7 9.26,-12.66 27,-23.63 52.31,-32.07 25.31,-8.45 59.04,-14.34 100.38,-19.39 40.49,-5.08 93.67,-7.6 157.76,-7.6 61.59,0 113.9,2.53 154.39,7.6 41.36,5.05 74.25,10.95 98.72,19.39 24.47,8.45 42.18,19.42 53.15,32.07 10.97,13.5 16.02,28.68 16.02,44.7l0 1889.78c0,127.4 16.02,237.06 47.25,330.73 31.2,92.8 75.93,170.42 134.98,231.14 58.23,60.75 128.24,107.16 210.07,137.53 81.85,30.36 172.97,45.54 273.34,45.54 102.09,0 194.04,-16.02 274.19,-47.23 81.01,-31.23 149.34,-76.78 205.86,-136.69 55.7,-60.73 99.56,-134.98 129.92,-222.72 30.39,-88.59 45.57,-188.97 45.57,-301.18l0 -1926.91c0,-16.02 5.05,-31.2 15.18,-44.7 9.29,-12.66 27,-23.63 51.46,-32.07 24.47,-8.45 58.2,-14.34 100.4,-19.39 42.18,-5.08 94.48,-7.6 156.92,-7.6 62.41,0 113.87,2.53 154.39,7.6 40.49,5.05 73.38,10.95 97.85,19.39 24.47,8.45 42.18,19.42 51.46,32.07 10.13,13.5 15.18,28.68 15.18,44.7l0 1918.46zm4461.26 949.96c19.42,59.07 32.07,106.32 37.12,140.9 5.05,34.6 -1.68,60.75 -19.39,78.46 -18.58,16.89 -50.62,27.84 -97.03,32.07 -45.54,4.21 -109.66,5.89 -189.83,5.89 -84.35,0 -150.16,-0.84 -196.57,-3.37 -47.23,-2.53 -82.67,-7.6 -107.98,-15.18 -24.47,-7.6 -41.33,-17.73 -51.46,-31.23 -10.13,-12.66 -18.55,-30.36 -24.47,-51.46l-210.07 -642.86 -1206.44 0 -201.62 625.15c-6.76,23.63 -15.18,43.02 -26.15,58.2 -10.13,16.05 -27.84,27.86 -51.46,37.12 -23.63,9.29 -57.36,15.21 -101.24,18.58 -43.86,3.37 -101.24,5.05 -172.1,5.05 -75.93,0 -134.98,-2.53 -178.02,-7.58 -43.02,-5.08 -72.54,-16.89 -88.59,-35.44 -16.87,-19.42 -22.76,-46.41 -17.71,-80.99 5.05,-34.6 17.71,-80.17 37.12,-138.37l985.4 -2838.9c9.26,-27.84 21.08,-50.62 34.57,-67.49 12.66,-17.73 33.76,-30.39 62.44,-39.65 29.52,-9.29 69.17,-15.21 120.64,-17.73 50.62,-2.53 118.11,-3.37 202.49,-3.37 97.01,0 174.63,0.84 232.01,3.37 58.2,2.53 102.93,8.45 134.98,17.73 32.07,9.26 54.83,22.76 69.17,40.49 13.5,18.55 26.15,43.02 35.44,74.22l988.77 2836.37zm-1467.97 -2348.73l-2.53 0 -445.44 1360.8 897.65 0 -449.68 -1360.8zm3672.46 2319.21c0,48.94 -1.68,91.11 -5.92,124.87 -4.21,33.73 -10.95,61.57 -18.55,83.51 -8.45,22.79 -18.55,38.81 -31.2,48.1 -12.66,10.13 -27.02,15.18 -43.04,15.18l-1465.41 0c-54.02,0 -99.56,-16.02 -136.69,-48.1 -37.12,-32.05 -55.67,-84.35 -55.67,-156.92l0 -2905.54c0,-16.02 5.05,-31.2 16.02,-44.7 10.97,-12.66 28.68,-23.63 53.15,-32.07 24.47,-8.45 58.23,-14.34 100.4,-19.39 42.18,-5.08 94.48,-7.6 156.92,-7.6 64.12,0 117.27,2.53 158.6,7.6 40.49,5.05 74.25,10.95 98.72,19.39 24.47,8.45 42.18,19.42 53.15,32.07 10.97,13.5 16.02,28.68 16.02,44.7l0 2574 1004.79 0c16.02,0 31.23,4.21 43.04,13.5 12.66,9.29 22.76,23.63 31.2,44.7 8.45,20.26 14.34,47.25 18.55,81.85 4.24,33.73 5.92,75.07 5.92,124.85zm4109.43 183.07c0,16.02 -4.21,31.23 -13.5,44.73 -9.29,12.66 -26.15,23.6 -49.78,32.05 -23.63,7.6 -55.67,14.34 -95.32,19.42 -39.65,5.05 -90.27,7.58 -151.02,7.58 -59.88,0 -109.66,-2.53 -149.31,-7.58 -39.65,-5.08 -70.88,-11.81 -94.48,-19.42 -22.79,-8.45 -39.65,-19.39 -48.94,-32.05 -10.13,-13.5 -15.18,-28.71 -15.18,-44.73l0 -2604.36 -5.08 0 -923.8 2601.84c-6.74,21.1 -16.87,38.81 -32.05,53.15 -15.18,14.34 -34.6,25.31 -60.75,33.76 -25.31,7.58 -58.2,13.5 -97.01,16.02 -39.65,2.53 -87.75,3.37 -143.42,3.37 -56.54,0 -103.77,-1.68 -143.42,-5.89 -39.65,-4.24 -72.57,-10.97 -97.88,-20.26 -25.31,-9.29 -45.54,-20.23 -60.75,-32.89 -14.34,-13.5 -24.44,-29.55 -29.52,-47.25l-891.73 -2601.84 -5.08 0 0 2604.36c0,16.02 -4.21,31.23 -13.5,44.73 -9.26,12.66 -26.15,23.6 -50.62,32.05 -25.31,7.6 -57.36,14.34 -96.17,19.42 -38.81,5.05 -88.59,7.58 -149.31,7.58 -59.91,0 -109.69,-2.53 -149.34,-7.58 -39.65,-5.08 -71.7,-11.81 -95.32,-19.42 -23.63,-8.45 -40.49,-19.39 -49.78,-32.05 -9.29,-13.5 -13.5,-28.71 -13.5,-44.73l0 -2850.71c0,-84.35 21.94,-148.47 66.65,-193.2 44.7,-44.7 103.77,-66.65 178.86,-66.65l425.19 0c75.93,0 141.74,5.92 195.73,18.58 54.86,12.66 102.09,32.89 141.74,61.57 38.81,28.71 72.57,66.65 98.72,113.9 26.15,47.25 49.78,105.45 69.17,174.63l689.27 1905.83 10.13 0 713.74 -1901.6c21.08,-69.2 44.7,-127.4 70.01,-175.49 26.15,-47.23 55.67,-86.04 89.43,-115.58 33.76,-29.52 74.25,-50.6 119.79,-63.25 46.41,-12.66 100.4,-18.58 161.15,-18.58l438.68 0c44.73,0 82.7,5.92 114.74,17.73 32.07,10.95 59.07,27.84 79.3,50.6 21.1,21.94 36.28,48.94 47.25,81.01 10.97,32.05 16.02,69.17 16.02,110.51l0 2850.71zm3318.1 -153.55c19.42,59.07 32.07,106.32 37.12,140.9 5.05,34.6 -1.68,60.75 -19.39,78.46 -18.58,16.89 -50.62,27.84 -97.03,32.07 -45.54,4.21 -109.66,5.89 -189.83,5.89 -84.35,0 -150.16,-0.84 -196.57,-3.37 -47.23,-2.53 -82.67,-7.6 -107.98,-15.18 -24.47,-7.6 -41.33,-17.73 -51.46,-31.23 -10.13,-12.66 -18.55,-30.36 -24.47,-51.46l-210.07 -642.86 -1206.44 0 -201.62 625.15c-6.76,23.63 -15.18,43.02 -26.15,58.2 -10.13,16.05 -27.84,27.86 -51.46,37.12 -23.63,9.29 -57.36,15.21 -101.24,18.58 -43.86,3.37 -101.24,5.05 -172.1,5.05 -75.93,0 -134.98,-2.53 -178.02,-7.58 -43.02,-5.08 -72.54,-16.89 -88.59,-35.44 -16.87,-19.42 -22.76,-46.41 -17.71,-80.99 5.05,-34.6 17.71,-80.17 37.12,-138.37l985.4 -2838.9c9.26,-27.84 21.08,-50.62 34.57,-67.49 12.66,-17.73 33.76,-30.39 62.44,-39.65 29.52,-9.29 69.17,-15.21 120.64,-17.73 50.62,-2.53 118.11,-3.37 202.49,-3.37 97.01,0 174.63,0.84 232.01,3.37 58.2,2.53 102.93,8.45 134.98,17.73 32.07,9.26 54.83,22.76 69.17,40.49 13.5,18.55 26.15,43.02 35.44,74.22l988.77 2836.37zm-1467.97 -2348.73l-2.53 0 -445.44 1360.8 897.65 0 -449.68 -1360.8zm4068.12 2107.45c0,41.33 -0.84,76.78 -3.37,105.45 -2.55,28.68 -6.76,53.99 -11.81,74.25 -4.24,21.08 -10.97,38.81 -19.42,53.99 -8.42,14.34 -21.08,31.2 -39.65,49.78 -17.71,18.55 -53.15,43.02 -104.61,72.54 -52.31,28.68 -115.58,57.38 -190.68,84.38 -75.07,26.15 -160.29,48.91 -256.45,66.65 -96.19,17.71 -200.81,27 -313,27 -218.51,0 -415.92,-33.76 -592.26,-101.24 -176.31,-67.49 -326.49,-168.73 -449.65,-302.87 -124.03,-134.13 -218.51,-301.18 -284.32,-502.83 -65.8,-200.78 -98.72,-434.47 -98.72,-701.08 0,-271.66 36.28,-512.93 108.85,-723.84 72.54,-210.93 173.78,-388.09 303.71,-531.51 129.92,-143.42 286,-251.4 468.23,-325.65 181.39,-74.25 382.17,-111.37 601.52,-111.37 88.59,0 173.78,7.6 256.48,22.79 82.67,14.34 158.6,33.76 228.62,58.2 70.04,23.63 132.48,51.46 188.99,82.7 55.67,32.05 95.32,59.04 117.27,80.99 21.94,22.79 37.12,41.33 45.54,55.67 8.45,15.21 15.21,33.76 19.42,56.54 5.05,23.6 9.29,50.62 11.81,81.83 2.53,31.2 3.37,69.17 3.37,115.58 0,48.94 -1.68,91.11 -5.05,125.71 -3.39,34.57 -9.29,62.41 -16.89,83.51 -8.42,21.1 -18.55,37.12 -29.52,46.39 -11.81,10.13 -25.31,15.21 -39.65,15.21 -24.47,0 -55.67,-14.34 -93.64,-43.04 -37.97,-28.68 -86.91,-60.73 -146.79,-96.17 -59.91,-35.44 -131.63,-67.49 -215.14,-96.17 -82.67,-28.71 -181.39,-43.04 -296.97,-43.04 -126.56,0 -239.59,26.15 -339.15,77.62 -99.53,52.31 -183.91,125.71 -253.93,221.88 -70.04,97.03 -123.19,213.46 -159.47,350.12 -36.26,135.84 -53.99,290.21 -53.99,461.49 0,187.28 19.42,350.12 58.23,487.62 38.81,136.69 93.64,250.56 165.34,339.15 70.88,88.59 157.79,155.23 259.01,198.25 101.24,43.89 215.14,65.8 341.7,65.8 114.72,0 214.28,-13.5 298.66,-40.49 83.51,-27 155.21,-57.36 215.12,-89.4 60.75,-32.92 109.66,-62.44 148.47,-88.59 38.81,-26.15 68.36,-39.65 90.27,-39.65 16.05,0 29.55,3.37 38.81,10.1 10.13,6.76 18.58,19.42 25.31,39.65 5.92,19.42 10.97,47.25 14.34,82.7 3.39,36.28 5.08,83.51 5.08,143.42zm5574.05 255.61c0,37.97 -6.76,71.72 -19.42,102.09 -13.5,29.55 -31.2,53.99 -53.99,74.25 -21.94,19.42 -48.1,33.76 -78.46,43.02 -31.23,9.29 -61.59,13.5 -92.8,13.5l-277.58 0c-58.2,0 -107.98,-5.89 -150.16,-16.87 -41.33,-11.81 -80.14,-32.89 -115.58,-63.28 -36.28,-30.36 -70.01,-71.7 -102.93,-124 -32.89,-51.46 -70.01,-118.95 -111.37,-201.65l-793.88 -1495.8c-46.39,-89.43 -92.8,-185.6 -140.87,-288.53 -48.1,-102.93 -90.27,-203.33 -128.24,-300.34l-5.08 0c6.76,118.95 11.81,237.06 15.21,355.17 3.37,117.27 5.05,239.61 5.05,364.46l0 1674.67c0,16.02 -4.21,31.2 -13.5,44.7 -9.29,12.66 -25.31,23.63 -47.25,32.92 -21.92,9.29 -52.31,16.02 -90.27,21.1 -37.97,5.05 -86.88,7.58 -145.95,7.58 -58.2,0 -106.3,-2.53 -144.26,-7.58 -37.97,-5.08 -67.49,-11.81 -88.59,-21.1 -21.92,-8.45 -37.12,-20.26 -44.7,-32.92 -8.45,-13.5 -12.66,-28.68 -12.66,-44.7l0 -2875.18c0,-77.62 22.79,-135.82 68.33,-174.63 44.73,-38.81 100.4,-58.23 167.05,-58.23l348.44 0c62.44,0 115.58,5.08 158.6,16.02 43.02,10.97 80.99,28.71 114.74,53.15 33.73,24.47 65.8,59.07 95.32,102.93 29.52,43.04 59.91,97.88 91.11,162l621.78 1170.15c36.28,70.86 71.7,140.9 107.14,209.22 35.44,68.33 70.01,136.66 102.09,205.01 32.89,68.33 64.96,135.82 96.17,201.62 32.07,66.65 62.44,132.45 91.96,198.25l2.55 0c-5.08,-115.58 -9.29,-236.22 -11.81,-361.07 -2.55,-125.71 -3.39,-245.51 -3.39,-359.41l0 -1501.7c0,-16.05 5.08,-31.23 15.21,-44.73 9.26,-12.66 26.15,-24.47 48.91,-34.6 23.63,-10.1 53.99,-16.87 91.96,-21.08 37.97,-4.21 86.91,-5.92 145.97,-5.92 56.52,0 103.77,1.71 141.71,5.92 37.97,4.21 66.67,10.97 87.75,21.08 20.26,10.13 35.44,21.94 43.04,34.6 8.42,13.5 12.66,27.84 12.66,44.73l0 2875.16zm-3213.51 -27.84c0,48.1 -1.68,87.75 -5.89,120.66 -4.21,32.05 -10.13,58.2 -18.58,77.62 -8.42,20.23 -18.55,34.57 -31.2,43.86 -11.81,9.29 -26.15,13.5 -40.49,13.5l-1604.63 0c-54.02,0 -99.56,-16.02 -136.69,-48.1 -37.12,-32.05 -55.67,-84.35 -55.67,-156.92l0 -2789.12c0,-72.57 18.55,-124.87 55.67,-156.92 37.12,-32.07 82.67,-48.1 136.69,-48.1l1597.02 0c14.34,0 27.84,4.21 39.65,12.66 10.97,8.45 21.1,22.79 29.55,43.02 7.58,21.1 14.34,47.25 18.55,79.33 4.21,32.89 5.92,73.38 5.92,123.16 0,46.41 -1.71,85.22 -5.92,118.11 -4.21,32.07 -10.13,58.23 -18.55,77.62 -8.45,20.26 -18.58,34.6 -29.55,43.86 -11.81,9.29 -25.31,13.5 -39.65,13.5l-1141.45 0 0 779.54 961.77 0c15.18,0 28.68,4.24 40.49,13.5 12.66,9.29 22.76,22.79 31.2,42.2 8.45,18.55 14.34,43.86 18.55,76.78 4.24,32.05 5.92,70.86 5.92,116.4 0,48.1 -1.68,87.75 -5.92,118.98 -4.21,31.2 -10.1,56.52 -18.55,75.07 -8.45,19.42 -18.55,32.92 -31.2,40.49 -11.81,8.45 -25.31,12.66 -40.49,12.66l-961.77 0 0 901.04 1149.05 0c15.18,0 28.68,4.21 40.49,13.5 12.66,9.26 22.79,23.63 31.2,43.86 8.45,19.42 14.37,45.57 18.58,77.62 4.21,32.92 5.89,72.57 5.89,120.64zm-759.28 -3806.56c21.1,-25.31 42.18,-44.73 62.44,-59.91 21.08,-14.34 45.54,-26.15 74.22,-34.57 28.71,-7.6 64.12,-13.5 105.48,-16.05 41.33,-2.53 91.96,-3.37 152.68,-3.37 75.93,0 135,5.05 177.18,15.18 42.18,9.29 70.86,21.94 86.91,37.97 15.18,16.02 18.55,33.76 10.95,53.15 -8.42,19.42 -24.44,40.49 -47.23,61.59l-549.21 494.38c-16.05,15.18 -32.92,27.84 -50.62,38.81 -16.89,10.97 -37.97,19.39 -62.44,27 -25.31,7.6 -54.83,12.66 -89.43,16.02 -34.6,3.39 -77.62,5.08 -128.24,5.08 -56.52,0 -101.24,-2.55 -134.98,-7.6 -33.76,-5.05 -57.38,-12.66 -71.72,-23.63 -14.34,-10.13 -19.39,-23.63 -16.02,-40.49 3.37,-16.87 15.18,-36.28 34.6,-59.04l445.44 -504.51z"/>
   <path class="fil1" d="M16237.52 10720.45c-13.31,43.89 -29.26,79.77 -50.54,106.38 -21.26,27.92 -54.52,47.86 -101.03,62.49 -46.54,14.63 -110.37,23.94 -191.49,27.94 -79.77,3.97 -184.81,5.31 -315.13,5.31 -103.72,0 -192.81,0 -267.27,-1.34 -74.46,-1.32 -136.95,-5.31 -188.81,-10.63 -51.86,-5.31 -94.4,-13.31 -126.32,-22.6 -33.23,-10.66 -59.83,-23.94 -82.43,-39.89 -21.29,-14.63 -38.57,-34.57 -50.54,-55.86 -11.97,-22.6 -22.6,-50.52 -33.23,-83.77l-1498.54 -4470.36c-30.6,-94.4 -50.54,-167.52 -55.86,-222.04 -6.63,-54.52 5.31,-95.75 38.57,-123.66 31.92,-26.6 87.75,-43.89 164.86,-50.54 78.46,-6.63 187.49,-9.29 328.44,-9.29 119.66,0 212.75,2.66 280.55,7.97 67.83,5.31 119.69,14.63 155.58,26.6 35.91,13.29 62.49,33.23 75.8,58.49 14.63,26.6 27.92,58.52 41.2,98.4l1224.64 3889.29 3.97 0 1204.7 -3870.68c10.63,-43.86 23.92,-79.77 38.55,-106.35 15.97,-27.94 42.54,-49.2 81.12,-65.17 37.23,-14.63 91.75,-25.26 162.23,-30.57 69.12,-5.31 166.21,-7.97 288.53,-7.97 119.66,0 212.75,3.97 279.24,11.97 66.49,7.97 111.69,26.57 136.95,55.83 23.94,30.57 31.92,73.14 22.6,127.66 -7.97,54.52 -29.26,126.32 -59.83,218.07l-1506.51 4474.34zm3236.43 38.57c0,25.26 -7.97,49.18 -25.26,70.46 -17.29,19.94 -45.23,37.23 -83.77,50.52 -38.57,11.97 -91.75,22.63 -155.58,30.6 -65.15,7.97 -148.92,11.97 -249.98,11.97 -98.4,0 -180.84,-4 -247.32,-11.97 -66.49,-7.97 -119.66,-18.63 -158.23,-30.6 -38.55,-13.29 -66.49,-30.57 -83.77,-50.52 -17.29,-21.29 -25.26,-45.2 -25.26,-70.46l0 -4762.89c0,-25.28 7.97,-49.2 25.26,-70.49 17.29,-19.94 45.23,-37.23 86.43,-50.52 39.89,-13.31 91.75,-22.6 156.92,-30.57 65.15,-8 147.58,-11.97 245.98,-11.97 101.06,0 184.83,3.97 249.98,11.97 63.83,7.97 117,17.26 155.58,30.57 38.55,13.29 66.49,30.57 83.77,50.52 17.29,21.29 25.26,45.2 25.26,70.49l0 4762.89zm4840.01 7.97c0,27.92 -5.31,51.86 -15.97,71.8 -10.63,19.94 -34.57,35.89 -73.12,49.2 -39.89,11.97 -95.75,21.26 -171.52,26.57 -75.8,5.34 -178.18,8 -307.15,8 -109.03,0 -195.46,-2.66 -260.64,-8 -65.15,-5.31 -117,-14.6 -154.23,-29.23 -37.23,-14.63 -63.83,-31.92 -79.77,-54.52 -14.63,-22.63 -27.92,-49.2 -38.57,-79.8l-454.73 -1128.87c-54.52,-127.66 -107.72,-242.01 -159.58,-340.41 -51.86,-99.72 -110.35,-182.15 -174.18,-248.64 -63.83,-66.49 -138.29,-115.69 -222.06,-150.26 -82.43,-33.23 -179.49,-50.52 -288.53,-50.52l-320.44 0 0 1926.7c0,25.26 -8,49.18 -25.28,69.15 -17.29,21.26 -45.2,38.55 -83.75,51.83 -38.57,11.97 -90.43,22.63 -155.58,30.6 -63.83,7.97 -147.6,11.97 -247.32,11.97 -98.4,0 -180.84,-4 -247.32,-11.97 -66.49,-7.97 -118.35,-18.63 -156.89,-30.6 -38.57,-13.29 -66.49,-30.57 -81.12,-50.52 -15.97,-21.29 -23.94,-45.2 -23.94,-70.46l0 -4579.4c0,-114.35 29.26,-196.81 87.77,-247.32 58.49,-50.52 130.29,-75.8 215.41,-75.8l1305.73 0c131.63,0 242.01,2.66 327.1,8 85.09,5.31 163.55,11.95 234.01,18.6 202.12,29.26 384.3,78.46 546.5,148.92 162.21,69.15 300.5,160.89 413.53,273.92 113.03,113.01 199.44,245.98 259.29,400.22 59.83,154.26 89.09,331.1 89.09,531.88 0,167.55 -21.29,321.78 -63.83,460.07 -43.89,139.61 -106.38,263.27 -190.15,372.3 -82.43,109.03 -184.83,203.44 -307.15,283.24 -122.32,81.09 -261.95,144.92 -417.53,195.44 75.8,35.91 146.29,79.8 212.75,131.66 66.49,51.86 128.98,115.66 187.49,190.12 58.52,74.46 114.35,158.23 166.21,253.98 51.86,94.4 102.4,202.09 151.58,321.78l426.84 995.92c38.55,98.4 65.15,170.21 77.12,216.72 13.29,45.23 19.94,81.12 19.94,107.72zm-1324.36 -3423.9c0,-166.23 -37.23,-307.15 -113.01,-420.19 -75.8,-114.35 -199.46,-195.46 -370.98,-242.01 -51.86,-13.29 -110.37,-22.6 -176.86,-30.57 -66.46,-7.97 -158.21,-11.97 -275.24,-11.97l-460.05 0 0 1428.08 522.56 0c146.26,0 272.58,-17.29 381.61,-53.2 110.35,-34.57 200.78,-83.77 273.9,-147.6 73.14,-62.49 127.66,-139.61 163.55,-227.35 35.91,-87.77 54.52,-186.15 54.52,-295.18zm5346.62 -1066.41c0,75.8 -2.66,139.61 -9.31,194.12 -6.63,53.2 -15.94,95.75 -29.26,127.66 -13.29,33.23 -29.23,57.17 -49.18,71.8 -18.63,15.94 -41.23,23.94 -63.83,23.94l-1260.53 0 0 4064.81c0,25.26 -7.97,49.18 -25.26,70.46 -17.29,19.94 -45.23,37.23 -83.77,50.52 -38.57,11.97 -91.75,22.63 -158.23,30.6 -66.49,7.97 -148.92,11.97 -247.32,11.97 -98.4,0 -180.84,-4 -247.32,-11.97 -66.46,-7.97 -119.66,-18.63 -158.23,-30.6 -38.55,-13.29 -66.46,-30.57 -83.75,-50.52 -17.29,-21.29 -25.28,-45.2 -25.28,-70.46l0 -4064.81 -1260.51 0c-25.28,0 -47.89,-8 -66.49,-23.94 -17.29,-14.63 -33.26,-38.57 -46.54,-71.8 -11.97,-31.92 -22.6,-74.46 -29.26,-127.66 -6.66,-54.52 -9.31,-118.32 -9.31,-194.12 0,-77.12 2.66,-143.61 9.31,-198.12 6.66,-54.52 17.29,-98.4 29.26,-130.32 13.29,-33.23 29.26,-55.83 46.54,-70.46 18.6,-14.63 41.2,-21.29 66.49,-21.29l3550.22 0c22.6,0 43.89,6.66 63.83,21.29 19.94,14.63 35.89,37.23 49.18,70.46 13.31,31.92 22.63,75.8 29.26,130.32 6.66,54.52 9.31,121 9.31,198.12zm4708.37 2743.1c0,308.5 -45.2,585.08 -136.95,828.4 -90.43,244.67 -223.38,450.76 -400.24,619.62 -176.84,168.86 -394.9,297.84 -654.2,385.61 -260.61,89.09 -558.45,132.95 -896.2,132.95 -316.47,0 -600.99,-39.89 -852.32,-118.32 -252.64,-79.8 -465.39,-199.46 -639.57,-360.35 -174.18,-160.89 -307.15,-361.67 -398.9,-602.34 -91.75,-240.67 -138.29,-521.22 -138.29,-843l0 -3066.23c0,-25.28 7.97,-49.2 23.94,-70.49 14.63,-19.94 42.54,-37.23 82.43,-50.52 39.89,-13.31 93.09,-22.6 158.23,-30.57 63.83,-8 147.58,-11.97 248.64,-11.97 97.06,0 179.52,3.97 243.32,11.97 65.17,7.97 117.03,17.26 155.58,30.57 38.57,13.29 66.49,30.57 83.77,50.52 17.29,21.29 25.26,45.2 25.26,70.49l0 2978.45c0,200.78 25.28,373.64 74.46,521.25 49.2,146.26 119.69,268.58 212.75,364.33 91.75,95.72 202.12,168.86 331.1,216.72 128.98,47.89 272.58,71.8 430.82,71.8 160.89,0 305.81,-25.26 432.13,-74.46 127.66,-49.2 235.35,-121 324.44,-215.41 87.77,-95.72 156.92,-212.75 204.78,-351.04 47.86,-139.61 71.8,-297.84 71.8,-474.68l0 -3036.97c0,-25.28 7.97,-49.2 23.94,-70.49 14.63,-19.94 42.54,-37.23 81.09,-50.52 38.57,-13.31 91.75,-22.6 158.23,-30.57 66.49,-8 148.92,-11.97 247.32,-11.97 98.4,0 179.52,3.97 243.32,11.97 63.83,7.97 115.69,17.26 154.26,30.57 38.55,13.29 66.46,30.57 81.09,50.52 15.97,21.29 23.94,45.2 23.94,70.49l0 3023.65zm5014.18 1497.22c30.57,93.09 50.54,167.55 58.52,222.06 7.97,54.52 -2.66,95.72 -30.6,123.66 -29.23,26.57 -79.77,43.86 -152.89,50.52 -71.8,6.66 -172.86,9.31 -299.18,9.31 -132.98,0 -236.69,-1.34 -309.81,-5.31 -74.46,-4 -130.32,-11.97 -170.21,-23.94 -38.57,-11.97 -65.15,-27.92 -81.12,-49.2 -15.94,-19.94 -29.23,-47.86 -38.55,-81.12l-331.1 -1013.21 -1901.44 0 -317.78 985.29c-10.63,37.23 -23.94,67.8 -41.23,91.75 -15.94,25.26 -43.86,43.89 -81.09,58.52 -37.23,14.63 -90.43,23.92 -159.58,29.23 -69.15,5.34 -159.55,8 -271.24,8 -119.69,0 -212.75,-4 -280.55,-11.97 -67.83,-7.97 -114.37,-26.6 -139.63,-55.86 -26.6,-30.57 -35.89,-73.12 -27.92,-127.63 7.97,-54.52 27.92,-126.32 58.49,-218.07l1553.08 -4474.36c14.6,-43.86 33.23,-79.77 54.52,-106.38 19.94,-27.92 53.17,-47.86 98.38,-62.49 46.54,-14.63 109.03,-23.94 190.15,-27.92 79.77,-4 186.15,-5.31 319.13,-5.31 152.92,0 275.24,1.32 365.64,5.31 91.77,3.97 162.23,13.29 212.75,27.92 50.54,14.63 86.43,35.91 109.03,63.83 21.29,29.26 41.23,67.8 55.86,117l1558.37 4470.36zm-2313.63 -3701.82l-4 0 -702.06 2144.76 1414.77 0 -708.71 -2144.76zm5788.07 3655.28c0,77.12 -2.66,143.61 -9.31,196.81 -6.66,53.17 -17.29,97.06 -29.26,131.63 -13.29,35.89 -29.23,61.15 -49.18,75.78 -19.97,15.97 -42.57,23.94 -67.83,23.94l-2309.63 0c-85.12,0 -156.92,-25.26 -215.41,-75.8 -58.52,-50.52 -87.77,-132.95 -87.77,-247.3l0 -4579.4c0,-25.28 7.97,-49.2 25.26,-70.49 17.29,-19.94 45.23,-37.23 83.77,-50.52 38.57,-13.31 91.75,-22.6 158.23,-30.57 66.49,-8 148.92,-11.97 247.32,-11.97 101.06,0 184.83,3.97 249.98,11.97 63.83,7.97 117,17.26 155.58,30.57 38.55,13.29 66.49,30.57 83.77,50.52 17.29,21.29 25.26,45.2 25.26,70.49l0 4056.83 1583.63 0c25.26,0 49.2,6.63 67.83,21.26 19.94,14.63 35.89,37.23 49.18,70.49 13.31,31.92 22.6,74.46 29.26,128.98 6.66,53.17 9.31,118.32 9.31,196.78z"/>
  </g>
 </g>
</svg>
