<?xml version="1.0" encoding="UTF-8"?>
<!DOCTYPE svg PUBLIC "-//W3C//DTD SVG 1.1//EN" "http://www.w3.org/Graphics/SVG/1.1/DTD/svg11.dtd">
<!-- Creator: CorelDRAW 2020 (64-Bit) -->
<svg xmlns="http://www.w3.org/2000/svg" xml:space="preserve" width="41.3159mm" height="38.2352mm" version="1.1" style="shape-rendering:geometricPrecision; text-rendering:geometricPrecision; image-rendering:optimizeQuality; fill-rule:evenodd; clip-rule:evenodd"
viewBox="0 0 1351.35 1250.59"
 xmlns:xlink="http://www.w3.org/1999/xlink"
 xmlns:xodm="http://www.corel.com/coreldraw/odm/2003">
 <defs>
  <style type="text/css">
   <![CDATA[
    .fil0 {fill:#A9D2FF}
   ]]>
  </style>
 </defs>
 <g id="Capa_x0020_1">
  <metadata id="CorelCorpID_0Corel-Layer"/>
  <path class="fil0" d="M1295.22 650.23l-209.1 600.36 -820.88 0 -208.41 -600.36 -16.22 0c-22.33,0 -40.61,-18.27 -40.61,-40.61l0 -15.48c0,-22.33 18.27,-40.61 40.61,-40.61l394.49 0 89.64 -239.75c-8.78,-13.6 -11.07,-30.56 -4.62,-46.43l94.32 -232.04c9.52,-23.42 35.16,-37.31 61.23,-35.09 26.07,-2.21 51.71,11.67 61.23,35.09l94.32 232.04c6.45,15.87 4.16,32.83 -4.62,46.43l89.64 239.75 394.5 0c22.33,0 40.6,18.27 40.6,40.61l0 15.48c0,22.33 -18.27,40.61 -40.6,40.61l-15.53 0zm-1135.66 -3.42l204.59 0 20.99 124.78 -185.14 0 -40.44 -124.78zm237.28 194.32l20.3 120.69 -155.49 0 -39.11 -120.69 174.3 0zm32 190.23l22.37 132.96 -123.93 0 -43.09 -132.96 144.65 0zm-5.38 -384.55l217.8 0 0 124.78 -196.81 0 -20.99 -124.78zm217.8 194.32l0 120.69 -164.81 0 -20.3 -120.69 185.11 0zm0 190.23l0 132.96 -130.74 0 -22.37 -132.96 153.11 0zm59.32 -384.55l210.81 0 -20.99 124.78 -189.82 0 0 -124.78zm178.12 194.32l-20.3 120.69 -157.81 0 0 -120.69 178.12 0zm-32 190.23l-22.37 132.96 -123.74 0 0 -132.96 146.11 0zm124.02 -384.55l211.58 0 -38.96 124.78 -193.61 0 20.99 -124.78zm150.91 194.32l-37.69 120.69 -166.22 0 20.3 -120.69 183.6 0zm-59.4 190.23l-41.52 132.96 -137.06 0 22.37 -132.96 156.21 0zm-554.04 -477.83l334.98 0 -87.96 -216.47c-15.76,-5.28 -29.01,-16.57 -35.27,-31.98l-44.26 -108.88 -44.26 108.88c-6.26,15.41 -19.51,26.7 -35.27,31.98l-87.96 216.47z"/>
 </g>
</svg>
